<svg xmlns="http://www.w3.org/2000/svg" xmlns:xlink="http://www.w3.org/1999/xlink" width="20" height="30" preserveAspectRatio="xMidYMid meet" viewBox="0 0 20 20" style="-ms-transform: rotate(360deg); -webkit-transform: rotate(360deg); transform: rotate(360deg);"><path d="M16.4 9H3.6c-.552 0-.6.447-.6 1c0 .553.048 1 .6 1h12.8c.552 0 .6-.447.6-1c0-.553-.048-1-.6-1zm0 4H3.6c-.552 0-.6.447-.6 1c0 .553.048 1 .6 1h12.8c.552 0 .6-.447.6-1c0-.553-.048-1-.6-1zM3.6 7h12.8c.552 0 .6-.447.6-1c0-.553-.048-1-.6-1H3.6c-.552 0-.6.447-.6 1c0 .553.048 1 .6 1z" fill="rgb(132,158,182)"/><rect x="0" y="0" width="20" height="20" fill="rgba(0, 0, 0, 0)" /></svg>