<?xml version="1.0" encoding="UTF-8" standalone="no"?>
<svg width="12px" height="10px" viewBox="0 0 12 10" version="1.1" xmlns="http://www.w3.org/2000/svg" xmlns:xlink="http://www.w3.org/1999/xlink">
    <path d="M0,1.50083274 C0,0.671945704 0.671189427,0 1.50167562,0 L5.49832438,0 C6.15097847,0 6.70638719,0.420210327 6.91342759,1 L10.3967336,1 C11.3009074,1 12,1.78945008 12,2.75550055 L12,8.49832438 C12,9.32767692 11.3204455,10 10.5044548,10 L1.49554521,10 C0.669578397,10 0,9.32881057 0,8.49832438 L0,1.50083274 Z M1,4 L1,8.49832438 C1,8.77693169 1.22227356,9 1.49554521,9 L10.5044548,9 C10.7717195,9 11,8.7718351 11,8.49832438 L11,4 L1,4 Z M11,3 L11,2.75550055 C11,2.31649641 10.7197286,2 10.3967336,2 L6,2 L6,1.50083274 C6,1.22799836 5.77256442,1 5.49832438,1 L1.50167562,1 C1.22385678,1 1,1.22384786 1,1.50083274 L1,3 L11,3 Z"></path>
</svg>