<svg width="16" height="16" viewBox="0 0 16 16" fill="currentColor" xmlns="http://www.w3.org/2000/svg">
<path fill-rule="evenodd" clip-rule="evenodd" d="M8 13C5.238 13 3 10.762 3 8C3 5.238 5.238 3 8 3C10.762 3 13 5.238 13 8C13 10.762 10.762 13 8 13ZM15.097 9.119V6.881C15.097 6.392 15.285 5.92 15.627 5.554L16 5.154L14.596 2.846L14.047 2.952C13.543 3.05 13.019 2.969 12.573 2.726L10.529 1.607C10.082 1.362 9.745 0.971 9.582 0.507L9.404 0H6.596L6.418 0.507C6.255 0.971 5.918 1.362 5.471 1.607L3.427 2.726C2.981 2.969 2.457 3.05 1.953 2.952L1.404 2.846L0 5.154L0.373 5.554C0.714 5.92 0.903 6.392 0.903 6.881V9.119C0.903 9.608 0.714 10.08 0.373 10.446L0 10.846L1.404 13.154L1.953 13.048C2.457 12.95 2.981 13.031 3.427 13.274L5.471 14.393C5.918 14.638 6.255 15.029 6.418 15.493L6.596 16H9.404L9.582 15.493C9.745 15.029 10.082 14.638 10.529 14.393L12.573 13.274C13.019 13.031 13.543 12.95 14.047 13.048L14.596 13.154L16 10.846L15.627 10.446C15.285 10.08 15.097 9.608 15.097 9.119ZM8 9C7.448 9 7 8.552 7 8C7 7.448 7.448 7 8 7C8.552 7 9 7.448 9 8C9 8.552 8.552 9 8 9ZM8 5C6.346 5 5 6.346 5 8C5 9.654 6.346 11 8 11C9.654 11 11 9.654 11 8C11 6.346 9.654 5 8 5Z" fill="currentColor"/>
</svg>
