<svg xmlns="http://www.w3.org/2000/svg" width="15" height="15">
    <path
        transform="scale(-1, 1)  translate(-15, 0)"
        d="M9.81 13.703L0 3.893l.032-.243A4.22 4.22 0 0 1 3.65.032L3.892 0l9.81 9.81L15 15l-5.19-1.297zm3.816-.077L12.8 10.32l-.54-.533-.782.44-.724.606-.564.678-.406.758.537.53 3.305.826zM1 3.482l1.974 1.98.235-.425.28-.38.292-.369.414-.43.442-.36.414-.286.4-.233L3.47 1l-.393.112-.4.171-.43.268-.323.27-.294.307-.223.323-.203.388-.135.373-.068.27zm2.774 2.78l5.278 5.27a5.21 5.21 0 0 1 1.048-1.444c.439-.43.911-.778 1.418-1.045L6.252 3.779l-.42.225-.417.262-.436.358-.406.414-.317.405-.247.394-.235.425z"
    />
</svg>
