<?xml version="1.0" encoding="utf-8"?>
<svg version="1.1" id="Layer_1" xmlns="http://www.w3.org/2000/svg" xmlns:xlink="http://www.w3.org/1999/xlink" x="0px" y="0px"
   width="24px" height="20px" viewBox="0 0 24 20" enable-background="new 0 0 24 20" xml:space="preserve">
<path d="M9.999,14H14v1H9.999V14z M24,6v12c0,1.1-0.9,2-2,2H2c-1.101,0-2-0.9-2-2V6c0-1.1,0.899-2,2-2h5c0-2.2,1.8-4,4-4h2
  c2.2,0,4,1.8,4,4h5C23.1,4,24,4.9,24,6z M8.3,4h7.4c0-1.489-1.211-2.7-2.7-2.7h-2C9.511,1.3,8.3,2.511,8.3,4z M1.5,6v6h21V6
  c0-0.272-0.229-0.5-0.5-0.5H2C1.729,5.5,1.5,5.728,1.5,6z M22.5,18v-5h-21v5c0,0.271,0.229,0.5,0.5,0.5h20
  C22.271,18.5,22.5,18.271,22.5,18z"/>
</svg>
